# xmcd
#
# Track frame offsets:
#	150
#	19080
#	44692
#	63092
#	87955
#	105757
#	131282
#	149827
#	169972
#
# Disc length: 2498 seconds
#
# Revision: 3
# Processed by: cddbd v1.5.1PL0 Copyright (c) Steve Scherf et al.
# Submitted via: audiograbber 1.82.01
#
DISCID=7509c009
DTITLE=Βασίλης Παπακωνσταντίνου - ΔΙΑΙΡΕΣΗ
DYEAR=1984
DGENRE=Rock
TTITLE0=Δεν υπάρχω
TTITLE1=Μπαλάντα για τον Γιάννη Κ
TTITLE2=Για σένα
TTITLE3=Ο μαύρος γάτος
TTITLE4=’σε με να κάνω λάθος
TTITLE5=Πριν το τέλος
TTITLE6=Λεγεωνάριος
TTITLE7=Έλα να με βρείς
TTITLE8=Μπρος γκρεμός και πίσω γκόμενες
EXTD=
EXTT0=
EXTT1=
EXTT2=
EXTT3=
EXTT4=
EXTT5=
EXTT6=
EXTT7=
EXTT8=
PLAYORDER=
